<svg xmlns="http://www.w3.org/2000/svg" viewBox="0 0 960 540" font-family="Helvetica Neue, Arial, sans-serif">
  <defs>
    <linearGradient id="bgGrad" x1="0" y1="0" x2="960" y2="540" gradientUnits="userSpaceOnUse">
      <stop offset="0%" stop-color="#F8FAFC"/>
      <stop offset="100%" stop-color="#EFF6FF"/>
    </linearGradient>
    <linearGradient id="chatHeader" x1="0" y1="0" x2="1" y2="0">
      <stop offset="0%" stop-color="#0F766E"/>
      <stop offset="100%" stop-color="#0D9488"/>
    </linearGradient>
    <filter id="shadow" x="-2%" y="-2%" width="104%" height="108%">
      <feDropShadow dx="0" dy="4" stdDeviation="10" flood-color="#1E293B" flood-opacity="0.12"/>
    </filter>
    <filter id="shadowSm" x="-2%" y="-4%" width="104%" height="112%">
      <feDropShadow dx="0" dy="1" stdDeviation="3" flood-color="#1E293B" flood-opacity="0.08"/>
    </filter>
    <clipPath id="chatClip"><rect x="140" y="36" width="680" height="468" rx="16"/></clipPath>
  </defs>

  <rect width="960" height="540" fill="url(#bgGrad)"/>

  <g filter="url(#shadow)">
    <rect x="140" y="36" width="680" height="468" rx="16" fill="white"/>
  </g>
  <g clip-path="url(#chatClip)">
    <rect x="140" y="36" width="680" height="44" fill="url(#chatHeader)"/>
    <circle cx="164" cy="58" r="6" fill="white" opacity="0.3"/>
    <circle cx="182" cy="58" r="6" fill="white" opacity="0.3"/>
    <circle cx="200" cy="58" r="6" fill="white" opacity="0.3"/>
    <text x="480" y="63" text-anchor="middle" font-size="14" font-weight="600" fill="white">Combined Experience -- Incident Response</text>

    <!-- Alert banner -->
    <rect x="164" y="92" width="632" height="32" rx="6" fill="#FEF2F2"/>
    <circle cx="182" cy="108" r="6" fill="#DC2626"/>
    <text x="196" y="113" font-size="12" font-weight="600" fill="#991B1B">ALERT</text>
    <text x="242" y="113" font-size="12" fill="#7F1D1D">pods crash-looping in namespace payments</text>

    <!-- User message 1 -->
    <rect x="380" y="136" width="420" height="32" rx="12" fill="#E0F2FE"/>
    <text x="396" y="157" font-size="12" fill="#0C4A6E">What's going on with payments?</text>
    <text x="764" y="157" font-size="10" fill="#94A3B8" text-anchor="end">User</text>

    <!-- Agent response: investigation -->
    <rect x="164" y="178" width="440" height="96" rx="12" fill="#F0FDFA"/>
    <text x="180" y="197" font-size="12" font-weight="600" fill="#0F766E">Investigating the payments namespace...</text>
    <g font-size="11" fill="#334155">
      <text x="188" y="216">&gt; Checked pod status: payments-api-7d4f -- 12 restarts</text>
      <text x="188" y="234">&gt; Pulled logs: OOMKilled at 512Mi limit</text>
      <text x="188" y="252">&gt; Queried metrics: memory trending up since 14:32 deploy</text>
      <text x="188" y="268" font-weight="600" fill="#0F766E">Root cause: memory leak from unbounded cache growth</text>
    </g>

    <!-- User message 2 -->
    <rect x="540" y="286" width="260" height="32" rx="12" fill="#E0F2FE"/>
    <text x="556" y="307" font-size="12" fill="#0C4A6E">Can you fix it?</text>
    <text x="764" y="307" font-size="10" fill="#94A3B8" text-anchor="end">User</text>

    <!-- Agent response: workflow options -->
    <text x="180" y="340" font-size="12" font-weight="600" fill="#0F766E">I found 2 remediation options:</text>

    <!-- Workflow card 1: Rollback -->
    <g filter="url(#shadowSm)">
      <rect x="172" y="352" width="220" height="64" rx="10" fill="white" stroke="#0D9488" stroke-width="2"/>
    </g>
    <circle cx="192" cy="374" r="10" fill="#0D9488" opacity="0.15"/>
    <text x="192" y="378" text-anchor="middle" font-size="10" font-weight="700" fill="#0D9488">R</text>
    <text x="212" y="374" font-size="13" font-weight="600" fill="#1E293B">Rollback deploy</text>
    <text x="212" y="392" font-size="11" fill="#64748B">Revert to v2.3.1</text>
    <rect x="212" y="400" width="80" height="12" rx="4" fill="#0D9488" opacity="0.15"/>
    <text x="220" y="410" font-size="8" font-weight="600" fill="#0D9488">RECOMMENDED</text>

    <!-- Workflow card 2: Scale memory -->
    <g filter="url(#shadowSm)">
      <rect x="408" y="352" width="220" height="64" rx="10" fill="white" stroke="#E2E8F0" stroke-width="1.5"/>
    </g>
    <circle cx="428" cy="374" r="10" fill="#D97706" opacity="0.15"/>
    <text x="428" y="378" text-anchor="middle" font-size="10" font-weight="700" fill="#D97706">M</text>
    <text x="448" y="374" font-size="13" font-weight="600" fill="#1E293B">Increase memory</text>
    <text x="448" y="392" font-size="11" fill="#64748B">512Mi -&gt; 1Gi</text>

    <!-- Execution result -->
    <rect x="164" y="428" width="440" height="52" rx="12" fill="#F0FDF4"/>
    <text x="180" y="448" font-size="12" font-weight="600" fill="#166534">Executing rollback...</text>
    <text x="188" y="464" font-size="11" fill="#334155">&gt; Pipeline OK  |  Health check OK  |  Alert resolved OK</text>
    <text x="180" y="476" font-size="12" font-weight="700" fill="#166534">Done. Payments is healthy.</text>
  </g>

  <!-- Attribution -->
  <rect x="582" y="492" width="338" height="28" rx="14" fill="#7C3AED" opacity="0.06"/>
  <text x="751" y="511" text-anchor="middle" font-size="11" font-weight="600" fill="#7C3AED">Your UI + agent  |  Kubernaut investigation + execution</text>
</svg>
