<svg xmlns="http://www.w3.org/2000/svg" viewBox="0 0 960 540" font-family="Helvetica Neue, Arial, sans-serif">
  <defs>
    <linearGradient id="bgGrad" x1="0" y1="0" x2="960" y2="540" gradientUnits="userSpaceOnUse">
      <stop offset="0%" stop-color="#F8FAFC"/>
      <stop offset="100%" stop-color="#EFF6FF"/>
    </linearGradient>
    <linearGradient id="tealGrad" x1="0" y1="0" x2="0" y2="1">
      <stop offset="0%" stop-color="#0D9488"/>
      <stop offset="100%" stop-color="#0F766E"/>
    </linearGradient>
    <linearGradient id="blueGrad" x1="0" y1="0" x2="0" y2="1">
      <stop offset="0%" stop-color="#2563EB"/>
      <stop offset="100%" stop-color="#1D4ED8"/>
    </linearGradient>
    <linearGradient id="purpleGrad" x1="0" y1="0" x2="0" y2="1">
      <stop offset="0%" stop-color="#7C3AED"/>
      <stop offset="100%" stop-color="#6D28D9"/>
    </linearGradient>
    <linearGradient id="amberGrad" x1="0" y1="0" x2="0" y2="1">
      <stop offset="0%" stop-color="#D97706"/>
      <stop offset="100%" stop-color="#B45309"/>
    </linearGradient>
    <filter id="shadow" x="-2%" y="-4%" width="104%" height="112%">
      <feDropShadow dx="0" dy="2" stdDeviation="5" flood-color="#1E293B" flood-opacity="0.1"/>
    </filter>
    <filter id="shadowLg" x="-2%" y="-2%" width="104%" height="106%">
      <feDropShadow dx="0" dy="3" stdDeviation="8" flood-color="#1E293B" flood-opacity="0.12"/>
    </filter>
  </defs>

  <rect width="960" height="540" fill="url(#bgGrad)"/>

  <text x="480" y="32" text-anchor="middle" font-size="20" font-weight="700" fill="#1E293B">Architecture Overview</text>

  <!-- YOUR PLATFORM ZONE -->
  <g filter="url(#shadowLg)">
    <rect x="40" y="48" width="880" height="120" rx="14" fill="white" stroke="#0D9488" stroke-width="1.5" stroke-dasharray="6,3"/>
  </g>
  <rect x="40" y="48" width="880" height="28" rx="14" fill="#0D9488" opacity="0.08"/>
  <text x="60" y="68" font-size="12" font-weight="700" fill="#0F766E" letter-spacing="0.8">YOUR PLATFORM</text>

  <g filter="url(#shadow)">
    <rect x="72" y="88" width="160" height="60" rx="10" fill="url(#tealGrad)"/>
  </g>
  <text x="152" y="116" text-anchor="middle" font-size="13" font-weight="600" fill="white">Chat UI</text>
  <text x="152" y="134" text-anchor="middle" font-size="10" fill="white" opacity="0.8">Natural language</text>

  <g filter="url(#shadow)">
    <rect x="272" y="88" width="200" height="60" rx="10" fill="url(#tealGrad)"/>
  </g>
  <text x="372" y="116" text-anchor="middle" font-size="13" font-weight="600" fill="white">Your Agent</text>
  <text x="372" y="134" text-anchor="middle" font-size="10" fill="white" opacity="0.8">Orchestration + intent</text>

  <g filter="url(#shadow)">
    <rect x="512" y="88" width="160" height="60" rx="10" fill="url(#tealGrad)"/>
  </g>
  <text x="592" y="116" text-anchor="middle" font-size="13" font-weight="600" fill="white">Dashboards</text>
  <text x="592" y="134" text-anchor="middle" font-size="10" fill="white" opacity="0.8">Monitoring + status</text>

  <g filter="url(#shadow)">
    <rect x="712" y="88" width="180" height="60" rx="10" fill="url(#tealGrad)"/>
  </g>
  <text x="802" y="116" text-anchor="middle" font-size="13" font-weight="600" fill="white">Auth &amp; Policy</text>
  <text x="802" y="134" text-anchor="middle" font-size="10" fill="white" opacity="0.8">Users, RBAC, tenancy</text>

  <!-- PROTOCOL BRIDGE -->
  <line x1="372" y1="168" x2="372" y2="196" stroke="#7C3AED" stroke-width="2"/>
  <polygon points="372,196 366,186 378,186" fill="#7C3AED"/>
  <rect x="292" y="178" width="160" height="24" rx="12" fill="#7C3AED" opacity="0.1"/>
  <text x="372" y="195" text-anchor="middle" font-size="10" font-weight="700" fill="#7C3AED" letter-spacing="0.5">MCP / A2A</text>

  <!-- KUBERNAUT ZONE -->
  <g filter="url(#shadowLg)">
    <rect x="40" y="210" width="880" height="310" rx="14" fill="white" stroke="#2563EB" stroke-width="1.5" stroke-dasharray="6,3"/>
  </g>
  <rect x="40" y="210" width="880" height="28" rx="14" fill="#2563EB" opacity="0.08"/>
  <text x="60" y="230" font-size="12" font-weight="700" fill="#1D4ED8" letter-spacing="0.8">KUBERNAUT (IN-CLUSTER)</text>
  <text x="862" y="230" font-size="10" fill="#64748B" text-anchor="end">Invisible to user</text>

  <!-- API Frontend -->
  <g filter="url(#shadow)">
    <rect x="260" y="248" width="440" height="52" rx="10" fill="url(#purpleGrad)"/>
  </g>
  <text x="480" y="275" text-anchor="middle" font-size="14" font-weight="600" fill="white">API Frontend</text>
  <text x="480" y="291" text-anchor="middle" font-size="10" fill="white" opacity="0.8">MCP server | A2A endpoint | CRD watcher | SSE streaming</text>

  <!-- Arrows from API Frontend -->
  <line x1="340" y1="300" x2="168" y2="340" stroke="#94A3B8" stroke-width="1.2"/>
  <polygon points="168,340 176,332 172,342" fill="#94A3B8"/>
  <line x1="420" y1="300" x2="380" y2="340" stroke="#94A3B8" stroke-width="1.2"/>
  <polygon points="380,340 386,330 378,334" fill="#94A3B8"/>
  <line x1="540" y1="300" x2="580" y2="340" stroke="#94A3B8" stroke-width="1.2"/>
  <polygon points="580,340 574,330 582,334" fill="#94A3B8"/>
  <line x1="620" y1="300" x2="790" y2="340" stroke="#94A3B8" stroke-width="1.2"/>
  <polygon points="790,340 782,332 788,342" fill="#94A3B8"/>

  <!-- Core services row -->
  <g filter="url(#shadow)">
    <rect x="72" y="340" width="180" height="56" rx="10" fill="url(#blueGrad)"/>
  </g>
  <text x="162" y="366" text-anchor="middle" font-size="12" font-weight="600" fill="white">Gateway</text>
  <text x="162" y="382" text-anchor="middle" font-size="9" fill="white" opacity="0.8">Signal intake | dedup | RR creation</text>

  <g filter="url(#shadow)">
    <rect x="282" y="340" width="200" height="56" rx="10" fill="url(#blueGrad)"/>
  </g>
  <text x="382" y="366" text-anchor="middle" font-size="12" font-weight="600" fill="white">Kubernaut Agent</text>
  <text x="382" y="382" text-anchor="middle" font-size="9" fill="white" opacity="0.8">LLM RCA | investigation tools</text>

  <g filter="url(#shadow)">
    <rect x="512" y="340" width="200" height="56" rx="10" fill="url(#blueGrad)"/>
  </g>
  <text x="612" y="366" text-anchor="middle" font-size="12" font-weight="600" fill="white">Remediation Orchestrator</text>
  <text x="612" y="382" text-anchor="middle" font-size="9" fill="white" opacity="0.8">CRD lifecycle | approval gates</text>

  <g filter="url(#shadow)">
    <rect x="742" y="340" width="150" height="56" rx="10" fill="url(#blueGrad)"/>
  </g>
  <text x="817" y="366" text-anchor="middle" font-size="12" font-weight="600" fill="white">DataStorage</text>
  <text x="817" y="382" text-anchor="middle" font-size="9" fill="white" opacity="0.8">Audit trail | history</text>

  <!-- Execution layer -->
  <g filter="url(#shadow)">
    <rect x="72" y="420" width="200" height="56" rx="10" fill="url(#amberGrad)"/>
  </g>
  <text x="172" y="446" text-anchor="middle" font-size="12" font-weight="600" fill="white">Workflow Execution</text>
  <text x="172" y="462" text-anchor="middle" font-size="9" fill="white" opacity="0.8">Tekton | K8s Jobs | Ansible</text>

  <g filter="url(#shadow)">
    <rect x="302" y="420" width="200" height="56" rx="10" fill="url(#amberGrad)"/>
  </g>
  <text x="402" y="446" text-anchor="middle" font-size="12" font-weight="600" fill="white">Effectiveness Monitor</text>
  <text x="402" y="462" text-anchor="middle" font-size="9" fill="white" opacity="0.8">Health checks | scoring</text>

  <g filter="url(#shadow)">
    <rect x="532" y="420" width="180" height="56" rx="10" fill="url(#amberGrad)"/>
  </g>
  <text x="622" y="446" text-anchor="middle" font-size="12" font-weight="600" fill="white">Notification</text>
  <text x="622" y="462" text-anchor="middle" font-size="9" fill="white" opacity="0.8">Slack | console | extensible</text>

  <g filter="url(#shadow)">
    <rect x="742" y="420" width="150" height="56" rx="10" fill="url(#amberGrad)"/>
  </g>
  <text x="817" y="446" text-anchor="middle" font-size="12" font-weight="600" fill="white">OPA Policies</text>
  <text x="817" y="462" text-anchor="middle" font-size="9" fill="white" opacity="0.8">Safety gates | RBAC</text>

  <!-- CRDs label -->
  <rect x="72" y="492" width="820" height="22" rx="6" fill="#2563EB" opacity="0.06"/>
  <text x="480" y="508" text-anchor="middle" font-size="10" fill="#64748B">9 CRDs: RemediationRequest | SignalProcessing | AIAnalysis | ApprovalRequest | Workflow | EffectivenessAssessment | ...</text>
</svg>
