<svg xmlns="http://www.w3.org/2000/svg" viewBox="0 0 960 540" font-family="Helvetica Neue, Arial, sans-serif">
  <defs>
    <linearGradient id="bgGrad" x1="0" y1="0" x2="960" y2="540" gradientUnits="userSpaceOnUse">
      <stop offset="0%" stop-color="#F8FAFC"/>
      <stop offset="100%" stop-color="#EFF6FF"/>
    </linearGradient>
    <filter id="shadow" x="-2%" y="-4%" width="104%" height="112%">
      <feDropShadow dx="0" dy="2" stdDeviation="5" flood-color="#1E293B" flood-opacity="0.08"/>
    </filter>
  </defs>

  <rect width="960" height="540" fill="url(#bgGrad)"/>

  <text x="480" y="40" text-anchor="middle" font-size="22" font-weight="700" fill="#1E293B">Existing v1.0 Personas</text>
  <text x="480" y="62" text-anchor="middle" font-size="13" fill="#64748B">Who interacts with Kubernaut today</text>

  <!-- Left column header -->
  <g filter="url(#shadow)">
    <rect x="40" y="82" width="420" height="370" rx="16" fill="white"/>
  </g>
  <rect x="40" y="82" width="420" height="44" rx="16" fill="#2563EB"/>
  <rect x="40" y="110" width="420" height="16" fill="#2563EB"/>
  <text x="250" y="111" text-anchor="middle" font-size="15" font-weight="700" fill="white">Operations and Governance</text>

  <!-- Card 1: Cluster/Platform Operator -->
  <rect x="60" y="140" width="380" height="88" rx="10" fill="#EFF6FF"/>
  <rect x="72" y="152" width="32" height="32" rx="8" fill="#2563EB" opacity="0.15"/>
  <text x="88" y="173" text-anchor="middle" font-size="12" font-weight="700" fill="#2563EB">OPS</text>
  <text x="116" y="160" font-size="14" font-weight="700" fill="#1D4ED8">Cluster / Platform Operator</text>
  <text x="116" y="178" font-size="11" fill="#475569">Installs and configures Kubernaut. Tunes timeouts,</text>
  <text x="116" y="192" font-size="11" fill="#475569">routing, Helm values, and RBAC. Manages deployment lifecycle.</text>
  <text x="116" y="210" font-size="10" fill="#94A3B8">BR-ORCH-043, BR-ORCH-044, BR-ORCH-046</text>

  <!-- Card 2: SRE / On-call Responder -->
  <rect x="60" y="238" width="380" height="88" rx="10" fill="#EFF6FF"/>
  <rect x="72" y="250" width="32" height="32" rx="8" fill="#2563EB" opacity="0.15"/>
  <text x="88" y="271" text-anchor="middle" font-size="12" font-weight="700" fill="#2563EB">SRE</text>
  <text x="116" y="258" font-size="14" font-weight="700" fill="#1D4ED8">SRE / On-call Responder</text>
  <text x="116" y="276" font-size="11" fill="#475569">Receives alerts, reviews remediation outcomes,</text>
  <text x="116" y="290" font-size="11" fill="#475569">uses kubectl to inspect state. Primary notification consumer.</text>
  <text x="116" y="308" font-size="10" fill="#94A3B8">BR-ORCH-044, BR-GATEWAY-058/093/184</text>

  <!-- Card 3: Remediation Approver -->
  <rect x="60" y="336" width="380" height="88" rx="10" fill="#EFF6FF"/>
  <rect x="72" y="348" width="32" height="32" rx="8" fill="#2563EB" opacity="0.15"/>
  <text x="88" y="369" text-anchor="middle" font-size="12" font-weight="700" fill="#2563EB">RAR</text>
  <text x="116" y="356" font-size="14" font-weight="700" fill="#1D4ED8">Remediation Approver</text>
  <text x="116" y="374" font-size="11" fill="#475569">Reviews RemediationApprovalRequests, approves or</text>
  <text x="116" y="388" font-size="11" fill="#475569">rejects proposed workflows. May overlap with SRE role.</text>
  <text x="116" y="406" font-size="10" fill="#94A3B8">ADR-040, BR-ORCH-001/025-028, BR-AI-059/060</text>

  <!-- Right column header -->
  <g filter="url(#shadow)">
    <rect x="500" y="82" width="420" height="370" rx="16" fill="white"/>
  </g>
  <rect x="500" y="82" width="420" height="44" rx="16" fill="#2563EB"/>
  <rect x="500" y="110" width="420" height="16" fill="#2563EB"/>
  <text x="710" y="111" text-anchor="middle" font-size="15" font-weight="700" fill="white">Content and Compliance</text>

  <!-- Card 4: Workflow Author -->
  <rect x="520" y="140" width="380" height="88" rx="10" fill="#EFF6FF"/>
  <rect x="532" y="152" width="32" height="32" rx="8" fill="#2563EB" opacity="0.15"/>
  <text x="548" y="173" text-anchor="middle" font-size="12" font-weight="700" fill="#2563EB">WF</text>
  <text x="576" y="160" font-size="14" font-weight="700" fill="#1D4ED8">Workflow Author</text>
  <text x="576" y="178" font-size="11" fill="#475569">Publishes and maintains workflow content in the</text>
  <text x="576" y="192" font-size="11" fill="#475569">catalog. Defines execution bundles, parameters, actions.</text>
  <text x="576" y="210" font-size="10" fill="#94A3B8">BR-WORKFLOW-001/003/004</text>

  <!-- Card 5: Security/Compliance Auditor -->
  <rect x="520" y="238" width="380" height="88" rx="10" fill="#EFF6FF"/>
  <rect x="532" y="250" width="32" height="32" rx="8" fill="#2563EB" opacity="0.15"/>
  <text x="548" y="271" text-anchor="middle" font-size="12" font-weight="700" fill="#2563EB">SEC</text>
  <text x="576" y="258" font-size="14" font-weight="700" fill="#1D4ED8">Security / Compliance Auditor</text>
  <text x="576" y="276" font-size="11" fill="#475569">Reviews audit trails for SOC2 compliance. Needs</text>
  <text x="576" y="290" font-size="11" fill="#475569">attribution (who did what, when) and event reconstruction.</text>
  <text x="576" y="308" font-size="10" fill="#94A3B8">BR-AUDIT-006, authwebhook attribution model</text>

  <!-- Card 6: Notification Recipient -->
  <rect x="520" y="336" width="380" height="88" rx="10" fill="#EFF6FF"/>
  <rect x="532" y="348" width="32" height="32" rx="8" fill="#2563EB" opacity="0.15"/>
  <text x="548" y="369" text-anchor="middle" font-size="12" font-weight="700" fill="#2563EB">NT</text>
  <text x="576" y="356" font-size="14" font-weight="700" fill="#1D4ED8">Notification Recipient</text>
  <text x="576" y="374" font-size="11" fill="#475569">Receives notifications about remediation events.</text>
  <text x="576" y="388" font-size="11" fill="#475569">May be outside K8s RBAC (Slack/PagerDuty access only).</text>
  <text x="576" y="406" font-size="10" fill="#94A3B8">ADR-014</text>

  <!-- Footer -->
  <text x="480" y="478" text-anchor="middle" font-size="12" fill="#64748B">RBAC archetypes (viewer, operator, developer, admin) are authorization tiers, not separate personas</text>
  <text x="480" y="496" text-anchor="middle" font-size="11" fill="#94A3B8">BR-RBAC-011 -- ClusterRole templates map to these four product-level role buckets</text>
</svg>
